<svg width="72" height="69" viewBox="0 0 72 69" fill="none" xmlns="http://www.w3.org/2000/svg">
<path d="M70.7733 43.3328C72.2074 38.215 72.3867 32.8497 71.2972 27.6548C70.2077 22.4599 67.8788 17.5756 64.4919 13.3823C61.105 9.18897 56.7515 5.79982 51.7705 3.47878C46.7895 1.15775 41.3153 -0.032521 35.7744 0.000675675C30.2335 0.0338723 24.7755 1.28964 19.8252 3.67017C14.875 6.05071 10.5663 9.49176 7.23458 13.7253C3.90289 17.9589 1.63819 22.8707 0.616846 28.0783C-0.404498 33.2858 -0.154916 38.6485 1.34616 43.7487L36 34.4234L70.7733 43.3328Z" fill="#DCDCDC"/>
<path d="M62.08 41.1054C63.1563 37.2645 63.2902 33.2377 62.4713 29.3392C61.6524 25.4406 59.9027 21.7756 57.3588 18.63C54.8149 15.4844 51.5455 12.9432 47.8055 11.2045C44.0655 9.46585 39.9561 8.57676 35.7976 8.60656C31.6392 8.63637 27.5441 9.58426 23.8318 11.3763C20.1195 13.1684 16.8903 15.7562 14.396 18.9379C11.9017 22.1197 10.2097 25.8093 9.45198 29.7192C8.69426 33.629 8.89128 37.6534 10.0277 41.4785L36 34.4234L62.08 41.1054Z" fill="#B3B3B3"/>
<ellipse cx="36" cy="34.4233" rx="16" ry="15.2993" fill="#9D9D9D"/>
<ellipse cx="36" cy="34.4233" rx="16" ry="15.2993" fill="#9D9D9D"/>
</svg>
